<svg version="1.1" xmlns="http://www.w3.org/2000/svg" width="40" height="32" viewBox="0 0 40 32">
<title>logo</title>
<path class="sld-logo-bg" fill="#fff" d="M39.615 19.829c-0.046-10.895-8.891-19.703-19.786-19.703s-19.74 8.808-19.786 19.703v12.128h39.538z"></path>
<path class="sld-logo-border" fill="#000" d="M19.83 0.083c-10.918 0-19.784 8.828-19.83 19.746v12.172h39.625l0.033-12.172c-0.046-10.918-8.91-19.746-19.829-19.746zM19.83 0.17c10.871 0 19.696 8.788 19.742 19.659l-0.033 12.085h-39.45v-12.085c0.046-10.871 8.871-19.659 19.742-19.659z"></path>
<path class="sld-logo-arc" fill="#007027" d="M36.828 19.847q0-0.123 0-0.245v0c0-0.007 0-0.015 0-0.023 0-4.7-1.908-8.954-4.992-12.030l-0-0c-3.076-3.084-7.331-4.993-12.030-4.993-0.008 0-0.016 0-0.024 0h0.001c-0.007 0-0.015 0-0.023 0-4.7 0-8.954 1.908-12.030 4.992l-0 0c-3.084 3.076-4.992 7.33-4.992 12.029 0 0.009 0 0.018 0 0.027v-0.001q0 0.122 0 0.245v0l-1.029 0.014q-0.002-0.129 0-0.258v0c0-9.982 8.092-18.074 18.075-18.075h0c9.982 0 18.074 8.092 18.075 18.075v0c0 0.087 0 0.173-0.002 0.258v0l-1.029-0.014z"></path>
<path class="sld-logo-arc" fill="#007027" d="M32.253 19.846c0-0.080 0.002-0.161 0.002-0.242v0c0-0.005 0-0.011 0-0.017 0-3.439-1.396-6.551-3.653-8.802l-0-0c-2.251-2.257-5.363-3.653-8.802-3.653-0.006 0-0.012 0-0.018 0h0.001c-0.005 0-0.012 0-0.018 0-3.439 0-6.551 1.396-8.802 3.653l-0 0c-2.257 2.251-3.653 5.363-3.653 8.802 0 0.006 0 0.012 0 0.018v-0.001q0 0.121 0.002 0.242v0l-0.881 0.016c0-0.085-0.002-0.172-0.002-0.259v0c0-7.375 5.979-13.353 13.354-13.354h0c7.375 0 13.353 5.979 13.354 13.354v0q0 0.129-0.002 0.259v0l-0.881-0.017z"></path>
<path class="sld-logo-arc" fill="#007027" d="M34.299 19.845q0.002-0.12 0.002-0.242v0c0-0.006 0-0.013 0-0.020 0-4.003-1.625-7.626-4.252-10.246l-0-0c-2.62-2.627-6.243-4.252-10.246-4.252-0.007 0-0.014 0-0.021 0h0.001v-0.955c8.545 0 15.473 6.928 15.473 15.473v0c0 0.086 0 0.173-0.002 0.259v0z"></path>
<path class="sld-logo-arc" fill="#007027" d="M30.425 19.846q0.003-0.121 0.003-0.243v0c0-0.004 0-0.009 0-0.015 0-2.935-1.192-5.591-3.117-7.512l-0-0c-1.921-1.926-4.578-3.118-7.512-3.118-0.005 0-0.010 0-0.015 0h0.001v-0.705c6.268 0 11.349 5.081 11.349 11.349v0q0 0.13-0.003 0.259v0z"></path>
<path class="sld-logo-arc" fill="#007027" d="M10.092 19.603c0-0 0-0 0-0 0-5.352 4.339-9.691 9.691-9.691h0c5.352 0 9.691 4.339 9.691 9.691 0 0 0 0 0 0.001v-0c0 0.087 0 0.172-0.003 0.258v0l-0.588-0.015q0.003-0.121 0.003-0.245v0c0-0.004 0-0.008 0-0.012 0-2.51-1.019-4.782-2.666-6.425l-0-0c-1.643-1.647-3.915-2.666-6.425-2.666-0.004 0-0.008 0-0.012 0h0.001c-0.004 0-0.008 0-0.012 0-2.51 0-4.782 1.019-6.425 2.666l-0 0c-1.647 1.643-2.666 3.915-2.666 6.425 0 0.004 0 0.009 0 0.013v-0.001q0 0.122 0.004 0.245v0l-0.588 0.015q-0.003-0.128-0.004-0.258z"></path>
<path class="sld-logo-arc" fill="#007027" d="M27.87 19.846c0.002-0.081 0.003-0.162 0.003-0.245v0c0-0.003 0-0.007 0-0.011 0-2.231-0.906-4.25-2.369-5.71l-0-0c-1.46-1.464-3.479-2.37-5.71-2.37-0.004 0-0.008 0-0.012 0h0.001v-0.522c4.757 0 8.612 3.856 8.613 8.612v0c0 0.087 0 0.172-0.004 0.258v0l-0.522-0.015z"></path>
<path class="sld-logo-arc" fill="#007027" d="M26.957 19.848c0.003-0.081 0.004-0.163 0.004-0.245v0c0-0.003 0-0.006 0-0.010 0-1.979-0.803-3.77-2.101-5.066l-0-0c-1.296-1.299-3.088-2.103-5.067-2.103-0.003 0-0.007 0-0.010 0h0.001c-0.003 0-0.006 0-0.009 0-1.98 0-3.772 0.804-5.067 2.103l-0 0c-1.299 1.296-2.103 3.087-2.103 5.067 0 0.003 0 0.007 0 0.010v-0.001q0 0.123 0.004 0.245v0l-0.36 0.012c-0.003-0.085-0.004-0.171-0.004-0.257v0c0-4.164 3.375-7.539 7.539-7.539v0c4.164 0 7.539 3.375 7.539 7.539v0q0 0.129-0.005 0.257v0l-0.359-0.012z"></path>
<path class="sld-logo-arc" fill="#007027" d="M26.231 19.848q0.005-0.122 0.005-0.245v0c0-0.003 0-0.006 0-0.009 0-1.779-0.722-3.389-1.89-4.553l-0-0c-1.164-1.168-2.775-1.89-4.554-1.89-0.003 0-0.006 0-0.009 0h0v-0.323c3.742 0 6.776 3.034 6.776 6.776v0q0 0.129-0.005 0.257v0l-0.323-0.012z"></path>
<path class="sld-logo-arc" fill="#007027" d="M25.586 19.848q0.005-0.122 0.005-0.245v0c0-0.002 0-0.005 0-0.008 0-1.601-0.65-3.051-1.701-4.099l-0-0c-1.048-1.051-2.497-1.701-4.099-1.701-0.003 0-0.005 0-0.008 0h0c-0.002 0-0.005 0-0.007 0-1.601 0-3.051 0.65-4.099 1.701l-0 0c-1.051 1.048-1.701 2.497-1.701 4.099 0 0.003 0 0.005 0 0.008v-0c0 0.082 0.002 0.164 0.005 0.245v0l-0.291 0.012q-0.005-0.127-0.006-0.257v0c0-3.368 2.731-6.098 6.099-6.098v0c3.368 0 6.098 2.73 6.098 6.098v0 0q0 0.129-0.005 0.257v0l-0.291-0.012z"></path>
<path class="sld-logo-arc" fill="#007027" d="M25.062 19.851q0.006-0.123 0.006-0.248v0c0-0.002 0-0.005 0-0.007 0-1.457-0.592-2.776-1.547-3.729l-0-0c-0.954-0.956-2.272-1.548-3.729-1.548-0.003 0-0.005 0-0.008 0h0v-0.147c2.999 0 5.431 2.432 5.431 5.431v0 0q0 0.128-0.006 0.255v0l-0.147-0.007z"></path>
<path class="sld-logo-arc" fill="#007027" d="M24.533 19.851q0.006-0.123 0.006-0.248v0c0-0.002 0-0.005 0-0.007 0-1.311-0.532-2.497-1.391-3.355l-0-0c-0.858-0.86-2.045-1.393-3.356-1.393-0.002 0-0.005 0-0.007 0h0c-0.002 0-0.004 0-0.007 0-1.311 0-2.498 0.532-3.356 1.393l-0 0c-0.86 0.858-1.393 2.045-1.393 3.356 0 0.002 0 0.005 0 0.007v-0q0 0.124 0.006 0.247v0l-0.132 0.007q-0.007-0.126-0.006-0.254v0c0-2.699 2.188-4.888 4.888-4.888v0 0c2.699 0 4.888 2.188 4.888 4.888v0 0q0 0.128-0.007 0.255v0l-0.132-0.007z"></path>
<path class="sld-logo-arc" fill="#007027" d="M15.448 19.603c0-2.394 1.94-4.334 4.334-4.334v0 0c2.394 0 4.334 1.94 4.334 4.334v0 0c0 0.094-0.003 0.187-0.009 0.28v0l-0.88-0.056c0.005-0.074 0.007-0.148 0.007-0.223v0c0-0.002 0-0.003 0-0.005 0-0.952-0.386-1.813-1.011-2.436l-0-0c-0.623-0.625-1.484-1.011-2.436-1.011-0.002 0-0.004 0-0.006 0h0c-0.002 0-0.004 0-0.006 0-0.952 0-1.813 0.386-2.436 1.011l-0 0c-0.625 0.623-1.011 1.484-1.011 2.436 0 0.002 0 0.004 0 0.006v-0q0 0.113 0.007 0.222v0l-0.88 0.057q-0.009-0.14-0.009-0.28z"></path>
<path class="sld-logo-text" fill="#00387d" d="M6.916 27.165h-1.126c-0.008 0-0.018 0.001-0.027 0.001-0.171 0-0.326-0.069-0.438-0.18l0 0c-0.11-0.116-0.178-0.272-0.178-0.445 0-0.010 0-0.021 0.001-0.031l-0 0.001c-0-0.009-0.001-0.020-0.001-0.030 0-0.161 0.066-0.307 0.172-0.412l0-0c0.116-0.101 0.268-0.163 0.435-0.163 0.013 0 0.026 0 0.038 0.001l-0.002-0h1.625c0.032-0.003 0.068-0.005 0.105-0.005 0.214 0 0.413 0.059 0.583 0.163l-0.005-0.003c0.122 0.118 0.198 0.283 0.198 0.465 0 0.024-0.001 0.048-0.004 0.071l0-0.003v2.811c0.002 0.019 0.003 0.042 0.003 0.065 0 0.163-0.048 0.314-0.132 0.441l0.002-0.003c-0.089 0.099-0.217 0.161-0.36 0.161-0.014 0-0.029-0.001-0.043-0.002l0.002 0c-0.006 0-0.013 0-0.021 0-0.13 0-0.249-0.048-0.34-0.128l0.001 0c-0.099-0.098-0.168-0.224-0.194-0.367l-0.001-0.004-0.114-0.553c-0.244 0.339-0.558 0.612-0.921 0.805l-0.014 0.007c-0.339 0.164-0.737 0.259-1.157 0.259-0.022 0-0.044-0-0.065-0.001l0.003 0c-0.034 0.001-0.075 0.002-0.115 0.002-0.946 0-1.796-0.412-2.38-1.066l-0.003-0.003c-0.594-0.771-0.952-1.751-0.952-2.814 0-1.062 0.357-2.041 0.958-2.822l-0.008 0.011c0.598-0.648 1.452-1.052 2.4-1.052 0.050 0 0.1 0.001 0.149 0.003l-0.007-0c0.008-0 0.017-0 0.026-0 0.333 0 0.658 0.036 0.97 0.106l-0.030-0.006c0.319 0.070 0.601 0.171 0.865 0.303l-0.021-0.009c0.33 0.164 0.61 0.381 0.84 0.642l0.003 0.003c0.177 0.194 0.289 0.45 0.299 0.732l0 0.002c0 0.008 0 0.017 0 0.026 0 0.192-0.073 0.367-0.193 0.498l0.001-0.001c-0.113 0.129-0.278 0.21-0.462 0.21-0.003 0-0.006-0-0.010-0h0c-0.006 0-0.014 0-0.021 0-0.145 0-0.281-0.037-0.4-0.102l0.004 0.002c-0.169-0.113-0.312-0.248-0.429-0.404l-0.003-0.004c-0.164-0.223-0.37-0.406-0.608-0.538l-0.010-0.005c-0.209-0.101-0.455-0.16-0.714-0.16-0.015 0-0.030 0-0.045 0.001l0.002-0c-0.021-0.001-0.045-0.001-0.070-0.001-0.562 0-1.061 0.266-1.38 0.679l-0.003 0.004c-0.335 0.475-0.535 1.066-0.535 1.703 0 0.060 0.002 0.119 0.005 0.178l-0-0.008c-0.003 0.050-0.005 0.108-0.005 0.167 0 0.641 0.208 1.234 0.561 1.714l-0.006-0.008c0.338 0.418 0.85 0.683 1.424 0.683 0.028 0 0.055-0.001 0.083-0.002l-0.004 0c0.017 0.001 0.036 0.001 0.056 0.001 0.439 0 0.84-0.161 1.147-0.428l-0.002 0.002c0.323-0.296 0.541-0.701 0.596-1.156l0.001-0.009z"></path>
<path class="sld-logo-text" fill="#00387d" d="M9.695 23.249c-0.002-0.021-0.003-0.045-0.003-0.069 0-0.205 0.072-0.393 0.191-0.541l-0.001 0.002c0.133-0.125 0.313-0.202 0.51-0.202 0.021 0 0.042 0.001 0.063 0.003l-0.003-0c0.017-0.001 0.036-0.002 0.056-0.002 0.2 0 0.382 0.078 0.517 0.204l-0-0c0.122 0.145 0.197 0.334 0.197 0.54 0 0.023-0.001 0.046-0.003 0.069l0-0.003v3.88c-0.004 0.048-0.007 0.103-0.007 0.159 0 0.407 0.13 0.784 0.351 1.091l-0.004-0.006c0.245 0.245 0.584 0.397 0.958 0.397 0.043 0 0.085-0.002 0.126-0.006l-0.005 0c0.037 0.004 0.080 0.006 0.124 0.006 0.377 0 0.718-0.151 0.968-0.395l-0 0c0.218-0.302 0.349-0.679 0.349-1.087 0-0.057-0.002-0.112-0.007-0.168l0.001 0.007v-3.88c-0.002-0.021-0.003-0.045-0.003-0.069 0-0.205 0.071-0.393 0.191-0.541l-0.001 0.002c0.153-0.124 0.35-0.2 0.565-0.2 0.216 0 0.414 0.076 0.569 0.203l-0.002-0.001c0.12 0.146 0.192 0.335 0.192 0.54 0 0.023-0.001 0.046-0.003 0.068l0-0.003v4.045c0.004 0.054 0.006 0.116 0.006 0.179 0 0.735-0.29 1.403-0.762 1.894l0.001-0.001c-0.526 0.453-1.217 0.729-1.971 0.729-0.072 0-0.144-0.003-0.215-0.008l0.010 0.001c-0.062 0.005-0.135 0.007-0.209 0.007-0.758 0-1.452-0.275-1.987-0.73l0.004 0.004c-0.474-0.489-0.767-1.157-0.767-1.894 0-0.064 0.002-0.127 0.007-0.19l-0 0.008z"></path>
<path class="sld-logo-text" fill="#00387d" d="M21.856 28.537c0.021-0.002 0.046-0.003 0.071-0.003 0.203 0 0.392 0.063 0.547 0.171l-0.003-0.002c0.127 0.129 0.205 0.306 0.205 0.502 0 0.197-0.079 0.375-0.208 0.505l0-0c-0.151 0.109-0.341 0.174-0.545 0.174-0.023 0-0.047-0.001-0.070-0.003l0.003 0h-3.876c-0.031 0.004-0.066 0.006-0.102 0.006-0.239 0-0.457-0.094-0.617-0.248l0 0c-0.13-0.217-0.207-0.479-0.207-0.758 0-0.053 0.003-0.105 0.008-0.157l-0.001 0.006v-5.038c-0.005-0.046-0.008-0.099-0.008-0.152 0-0.281 0.077-0.543 0.211-0.768l-0.004 0.007c0.16-0.153 0.377-0.247 0.617-0.247 0.036 0 0.071 0.002 0.106 0.006l-0.004-0h3.682c0.020-0.002 0.044-0.002 0.068-0.002 0.203 0 0.391 0.062 0.547 0.169l-0.003-0.002c0.128 0.107 0.208 0.266 0.208 0.445 0 0.013-0 0.027-0.001 0.040l0-0.002c0.001 0.011 0.001 0.023 0.001 0.035 0 0.175-0.081 0.33-0.207 0.432l-0.001 0.001c-0.153 0.101-0.341 0.162-0.543 0.162-0.024 0-0.048-0.001-0.072-0.003l0.003 0h-3.108v1.562h2.794c0.021-0.002 0.046-0.003 0.071-0.003 0.199 0 0.384 0.060 0.538 0.162l-0.004-0.002c0.125 0.105 0.203 0.261 0.203 0.435 0 0.015-0.001 0.029-0.002 0.044l0-0.002c0.001 0.010 0.001 0.021 0.001 0.033 0 0.174-0.081 0.329-0.207 0.431l-0.001 0.001c-0.151 0.101-0.336 0.162-0.535 0.162-0.023 0-0.046-0.001-0.068-0.002l0.003 0h-2.794v1.904z"></path>
<path class="sld-logo-text" fill="#00387d" d="M24.644 29.882c-0.030 0.004-0.066 0.006-0.102 0.006-0.239 0-0.457-0.094-0.617-0.247l0 0c-0.13-0.217-0.207-0.478-0.207-0.757 0-0.053 0.003-0.106 0.008-0.158l-0.001 0.006v-5.038c-0.005-0.046-0.008-0.099-0.008-0.153 0-0.281 0.077-0.544 0.21-0.769l-0.004 0.007c0.16-0.153 0.377-0.248 0.617-0.248 0.036 0 0.071 0.002 0.105 0.006l-0.004-0h1.961q1.69 0 2.519 0.912t0.83 2.767c0.001 0.027 0.001 0.059 0.001 0.091 0 0.605-0.113 1.184-0.318 1.717l0.011-0.033c-0.192 0.496-0.497 0.913-0.884 1.233l-0.005 0.004c-0.281 0.225-0.615 0.397-0.978 0.496l-0.019 0.004c-0.415 0.098-0.892 0.155-1.382 0.155-0.064 0-0.129-0.001-0.193-0.003l0.009 0zM25.207 23.83v4.729h1.211c0.053 0.005 0.114 0.008 0.176 0.008 0.526 0 1.002-0.214 1.346-0.559l0-0q0.472-0.551 0.471-1.788c0.006-0.070 0.009-0.151 0.009-0.233 0-0.584-0.167-1.129-0.455-1.59l0.007 0.013c-0.298-0.357-0.743-0.583-1.24-0.583-0.045 0-0.090 0.002-0.134 0.006l0.006-0z"></path>
<path class="sld-logo-text" fill="#00387d" d="M34.412 22.348c0.047-0.002 0.103-0.004 0.158-0.004 0.967 0 1.84 0.403 2.459 1.051l0.001 0.001c0.608 0.769 0.975 1.753 0.975 2.822s-0.367 2.053-0.982 2.832l0.007-0.010c-0.68 0.648-1.603 1.047-2.619 1.047-1.015 0-1.936-0.398-2.618-1.046l0.002 0.002c-0.603-0.772-0.967-1.757-0.967-2.826s0.364-2.054 0.975-2.837l-0.008 0.010c0.619-0.646 1.489-1.047 2.452-1.047 0.058 0 0.115 0.001 0.172 0.004l-0.008-0zM34.412 23.666c-0.028-0.002-0.060-0.002-0.092-0.002-0.568 0-1.076 0.26-1.41 0.667l-0.003 0.003c-0.338 0.535-0.539 1.185-0.539 1.883s0.201 1.348 0.547 1.897l-0.009-0.015c0.337 0.412 0.845 0.672 1.413 0.672 0.032 0 0.064-0.001 0.096-0.002l-0.004 0c0.028 0.002 0.061 0.002 0.094 0.002 0.572 0 1.084-0.26 1.423-0.669l0.002-0.003c0.341-0.533 0.543-1.184 0.543-1.881s-0.202-1.348-0.552-1.896l0.008 0.014c-0.341-0.412-0.853-0.673-1.426-0.673-0.033 0-0.066 0.001-0.098 0.003l0.005-0z"></path>
</svg>